<svg width="214" height="214" viewBox="0 0 214 214" fill="none" xmlns="http://www.w3.org/2000/svg">
<path d="M91.3221 75.8193C96.7464 67.9838 108.295 68.0805 113.608 75.9922C113.737 76.1846 113.865 76.3777 113.993 76.5693C107.883 81.3268 103.953 88.7523 103.953 97.0957C103.953 111.455 115.594 123.096 129.953 123.096C133.416 123.096 136.719 122.415 139.741 121.187C140.181 122.101 140.62 123.022 141.058 123.952C146.016 134.475 136.186 145.619 124.97 142.538L122.91 141.973C121.067 141.466 119.356 140.576 117.73 139.571C114.557 137.61 108.523 134.575 101.492 134.506C97.2579 134.464 94.0871 135.632 91.8318 137.004C88.4563 139.057 85.1264 141.651 81.2537 142.435L78.5066 142.99C67.5643 145.203 58.5696 134.342 63.284 124.223C71.238 107.149 79.4236 93.0086 91.3221 75.8193Z" fill="black"/>
<ellipse cx="129.453" cy="97.0953" rx="23.5" ry="24" fill="black"/>
</svg>
