<svg width="214" height="214" viewBox="0 0 214 214" fill="none" xmlns="http://www.w3.org/2000/svg">
<rect width="214" height="214" rx="107" fill="white"/>
<path d="M91.3215 75.8194C96.7457 67.9834 108.296 68.0805 113.609 75.9923C113.738 76.1847 113.865 76.3778 113.993 76.5694C107.884 81.3269 103.953 88.7524 103.953 97.0958C103.954 111.455 115.594 123.096 129.953 123.096C133.416 123.096 136.72 122.415 139.741 121.187C140.181 122.101 140.621 123.022 141.059 123.951C146.017 134.474 136.186 145.62 124.969 142.538L122.909 141.973C121.067 141.466 119.356 140.576 117.731 139.571C114.558 137.611 108.523 134.575 101.492 134.506C97.2583 134.464 94.0876 135.632 91.8323 137.004C88.4567 139.058 85.126 141.652 81.2532 142.435L78.5061 142.99C67.564 145.203 58.5692 134.342 63.2835 124.223C71.2376 107.149 79.423 93.0088 91.3215 75.8194Z" fill="black"/>
<ellipse cx="129.453" cy="97.0953" rx="23.5" ry="24" fill="black"/>
</svg>
