<svg width="23" height="17" viewBox="0 0 23 17" fill="none" xmlns="http://www.w3.org/2000/svg">
<path fill-rule="evenodd" clip-rule="evenodd" d="M5.50688 2.5011C6.94829 0.265845 9.78292 -0.221712 11.8457 1.01184C10.6072 2.16852 9.83012 3.8335 9.83012 5.68372C9.83012 9.17718 12.6008 12.0089 16.0176 12.0089C16.8408 12.0089 17.6254 11.8425 18.3438 11.5441C18.4019 11.6676 18.4626 11.7906 18.5205 11.9152C19.7688 14.5997 17.2469 17.418 14.3965 16.6173C13.9219 16.4839 13.482 16.2501 13.0635 15.9894C12.2972 15.512 10.8851 14.8018 9.24516 14.7853C8.30494 14.7759 7.58478 15.0229 7.05668 15.3273C6.16322 15.8422 5.29896 16.5345 4.2891 16.7433C1.4597 17.3279 -0.884044 14.531 0.326214 11.9073C1.85599 8.59109 3.43817 5.70991 5.50688 2.5011Z" fill="black"/>
<circle cx="16.543" cy="5.5" r="5.5" fill="black"/>
</svg>
