<svg width="23" height="17" viewBox="0 0 23 17" fill="none" xmlns="http://www.w3.org/2000/svg">
<path fill-rule="evenodd" clip-rule="evenodd" d="M5.50688 2.50198C6.94837 0.266077 9.7837 -0.222429 11.8467 1.01175C10.6079 2.16843 9.83016 3.83315 9.83013 5.68362C9.83013 9.17708 12.6008 12.0088 16.0176 12.0088C16.8408 12.0088 17.6254 11.8424 18.3438 11.544C18.4019 11.6675 18.4626 11.7904 18.5206 11.9151C19.7689 14.5997 17.2469 17.4179 14.3965 16.6172C13.9219 16.4838 13.482 16.25 13.0635 15.9893C12.2972 15.5119 10.8851 14.8017 9.24516 14.7852C8.30493 14.7758 7.58479 15.0228 7.05669 15.3272C6.1632 15.8421 5.29899 16.5344 4.28911 16.7432C1.45967 17.3278 -0.884047 14.5309 0.32622 11.9073C1.85596 8.59109 3.43824 5.71071 5.50688 2.50198Z" fill="white"/>
<circle cx="16.543" cy="5.5" r="5.5" fill="white"/>
</svg>
